<svg width="17" height="20" viewBox="0 0 17 20" fill="none" xmlns="http://www.w3.org/2000/svg">
<path d="M11.6871 18.3701C11.7296 18.6888 11.6233 19.0287 11.379 19.2518C11.2807 19.3503 11.164 19.4284 11.0354 19.4817C10.9069 19.5351 10.7692 19.5625 10.63 19.5625C10.4909 19.5625 10.3531 19.5351 10.2246 19.4817C10.0961 19.4284 9.97934 19.3503 9.88106 19.2518L5.62102 14.9918C5.50522 14.8785 5.41717 14.7399 5.36373 14.587C5.31029 14.434 5.29291 14.2708 5.31294 14.11V8.67076L0.224271 2.15852C0.0517534 1.93705 -0.0260899 1.6563 0.00775045 1.37761C0.0415908 1.09892 0.184363 0.844963 0.404871 0.671218C0.606718 0.522488 0.829812 0.4375 1.06353 0.4375H15.9365C16.1702 0.4375 16.3933 0.522488 16.5951 0.671218C16.8156 0.844963 16.9584 1.09892 16.9922 1.37761C17.0261 1.6563 16.9482 1.93705 16.7757 2.15852L11.6871 8.67076V18.3701ZM3.23073 2.56221L7.43765 7.93773V13.8019L9.56235 15.9266V7.92711L13.7693 2.56221H3.23073Z" fill="black"/>
</svg>
