<svg width="34" height="28" viewBox="0 0 34 28" fill="none" xmlns="http://www.w3.org/2000/svg">
<path fill-rule="evenodd" clip-rule="evenodd" d="M17.2397 4.83272L18.3543 7.89518C18.7245 7.76043 19.1177 7.69993 19.5113 7.71711C19.9049 7.73429 20.2912 7.82883 20.6483 7.99533C21.0053 8.16183 21.3261 8.39702 21.5922 8.68748C21.8584 8.97795 22.0647 9.31799 22.1995 9.68819C22.3342 10.0584 22.3947 10.4515 22.3775 10.8451C22.3604 11.2387 22.2658 11.6251 22.0993 11.9821C21.9328 12.3392 21.6976 12.6599 21.4072 12.9261C21.1167 13.1922 20.7767 13.3986 20.4065 13.5333L21.4325 16.3524C21.9962 17.901 20.5505 19.4286 18.9727 18.9504L16.5082 18.2022C15.1911 17.8029 13.7978 17.7235 12.4438 17.9703L13.8284 22.3127C14.0521 22.927 14.0462 23.6014 13.8118 24.2117C13.5774 24.822 13.1303 25.3269 12.5529 25.6335C11.9755 25.9401 11.3067 26.0276 10.6699 25.88C10.033 25.7323 9.47104 25.3594 9.08748 24.83L5.32049 18.5325C4.56138 18.0988 3.9383 17.4619 3.52129 16.6935C3.10427 15.9251 2.90985 15.0556 2.95989 14.1827C3.00992 13.3099 3.30243 12.4683 3.80452 11.7525C4.30661 11.0368 4.99839 10.4753 5.80209 10.1311L8.58063 8.94106C9.94009 8.35881 11.1419 7.46219 12.0873 6.32492L13.8221 4.23773C14.8099 3.05133 16.7116 3.38183 17.2397 4.83272ZM8.21523 19.1178L10.7067 23.6564C10.8071 23.7954 10.9544 23.8933 11.1214 23.9321C11.2884 23.971 11.4638 23.9481 11.6152 23.8676C11.7666 23.7872 11.8838 23.6548 11.9452 23.4947C12.0065 23.3346 12.0079 23.1577 11.949 22.9967L10.5076 18.4984L9.01195 18.9502C8.7517 19.0289 8.48513 19.0849 8.21523 19.1178ZM15.3603 5.51676L13.625 7.60524C12.5703 8.87285 11.2519 9.89526 9.76167 10.6012L11.7519 16.0693C13.5152 15.6893 15.3521 15.7625 17.0886 16.2882L19.5531 17.0365L15.3603 5.51676ZM7.92332 11.398L6.58813 11.9691C5.967 12.2349 5.46804 12.7238 5.18976 13.3394C4.91148 13.955 4.87409 14.6525 5.08497 15.2944C5.29586 15.9362 5.7397 16.4756 6.32887 16.8062C6.91804 17.1368 7.60974 17.2345 8.26743 17.08L8.4323 17.036L9.82222 16.6152L7.92332 11.398ZM19.0384 9.77456L19.7224 11.6539C19.9618 11.5665 20.1588 11.391 20.2731 11.1631C20.3875 10.9353 20.4105 10.6725 20.3375 10.4283C20.2645 10.1841 20.101 9.97695 19.8804 9.84923C19.6599 9.72152 19.3988 9.68285 19.1507 9.74112L19.0384 9.77456Z" fill="black"/>
<line x1="21.6464" y1="5.16897" x2="25.8891" y2="0.926328" stroke="black"/>
<line x1="24.7887" y1="8.84769" x2="30.2265" y2="6.31198" stroke="black"/>
<line x1="25.0174" y1="13.5004" x2="31.0138" y2="13.7098" stroke="black"/>
</svg>
