<svg width="100" height="39" viewBox="0 0 100 39" fill="none" xmlns="http://www.w3.org/2000/svg">
<g clip-path="url(#clip0_393_611)">
<g filter="url(#filter0_d_393_611)">
<path d="M14.336 37.6H5.912V7.312L5 2.128C5.72 2.016 6.528 1.912 7.424 1.816C8.32 1.704 9.224 1.616 10.136 1.552C11.048 1.488 11.92 1.44 12.752 1.408C13.6 1.36 14.336 1.336 14.96 1.336C16.944 1.336 18.848 1.512 20.672 1.864C22.496 2.2 24.104 2.768 25.496 3.568C26.888 4.352 28 5.4 28.832 6.712C29.664 8.008 30.08 9.616 30.08 11.536C30.08 13.696 29.704 15.512 28.952 16.984C28.2 18.456 27.128 19.656 25.736 20.584C24.36 21.496 22.704 22.168 20.768 22.6C18.832 23.032 16.688 23.288 14.336 23.368V37.6ZM14.336 10.48V18.304C15.568 18.24 16.664 18.088 17.624 17.848C18.584 17.592 19.392 17.216 20.048 16.72C20.72 16.208 21.224 15.552 21.56 14.752C21.912 13.936 22.088 12.928 22.088 11.728C22.088 10.752 21.904 9.92 21.536 9.232C21.168 8.544 20.688 7.984 20.096 7.552C19.52 7.104 18.872 6.784 18.152 6.592C17.432 6.384 16.712 6.28 15.992 6.28C15.72 6.28 15.4 6.288 15.032 6.304C14.68 6.32 14.32 6.352 13.952 6.4L14.336 10.48ZM31.0066 37.6L40.5586 6.784L41.3986 1.744L50.4706 1L61.9666 37.6H53.7586L50.9746 27.352H41.5666L38.8546 37.6H31.0066ZM46.2706 4.936L44.9986 13.84L42.9826 22.096H49.5586L47.5186 13.84L46.2706 4.936ZM76.0254 24.064C75.8494 23.84 75.6494 23.712 75.4254 23.68C75.2014 23.632 75.0254 23.608 74.8974 23.608V37.6H66.4494V7.312L65.5374 2.032C66.2574 1.952 67.0734 1.872 67.9854 1.792C68.8974 1.696 69.8254 1.616 70.7694 1.552C71.7134 1.488 72.6334 1.44 73.5294 1.408C74.4414 1.36 75.2494 1.336 75.9534 1.336C78.1454 1.336 80.1374 1.56 81.9294 2.008C83.7374 2.44 85.2814 3.096 86.5614 3.976C87.8574 4.84 88.8574 5.92 89.5614 7.216C90.2814 8.496 90.6414 9.976 90.6414 11.656C90.6414 13.384 90.3694 14.872 89.8254 16.12C89.2974 17.352 88.5774 18.408 87.6654 19.288C86.7534 20.152 85.6974 20.864 84.4974 21.424C83.3134 21.984 82.0734 22.44 80.7774 22.792L84.1374 23.584L94.6014 37.6H85.7694L76.0254 24.064ZM74.8974 10.48V18.352H76.4334C77.5054 18.352 78.4334 18.184 79.2174 17.848C80.0174 17.496 80.6734 17.032 81.1854 16.456C81.7134 15.88 82.1054 15.208 82.3614 14.44C82.6174 13.672 82.7454 12.864 82.7454 12.016C82.7454 10.896 82.5534 9.968 82.1694 9.232C81.8014 8.496 81.3214 7.912 80.7294 7.48C80.1374 7.032 79.4654 6.72 78.7134 6.544C77.9774 6.368 77.2494 6.28 76.5294 6.28H75.2574C75.1294 6.28 75.0014 6.288 74.8734 6.304C74.7614 6.304 74.6334 6.312 74.4894 6.328L74.8974 10.48Z" fill="black"/>
</g>
</g>
<defs>
<filter id="filter0_d_393_611" x="0.7" y="-0.3" width="100.202" height="47.1996" filterUnits="userSpaceOnUse" color-interpolation-filters="sRGB">
<feFlood flood-opacity="0" result="BackgroundImageFix"/>
<feColorMatrix in="SourceAlpha" type="matrix" values="0 0 0 0 0 0 0 0 0 0 0 0 0 0 0 0 0 0 127 0" result="hardAlpha"/>
<feOffset dx="1" dy="4"/>
<feGaussianBlur stdDeviation="2.65"/>
<feComposite in2="hardAlpha" operator="out"/>
<feColorMatrix type="matrix" values="0 0 0 0 1 0 0 0 0 0.364706 0 0 0 0 0.00784314 0 0 0 0.19 0"/>
<feBlend mode="normal" in2="BackgroundImageFix" result="effect1_dropShadow_393_611"/>
<feBlend mode="normal" in="SourceGraphic" in2="effect1_dropShadow_393_611" result="shape"/>
</filter>
<clipPath id="clip0_393_611">
<rect width="99.6014" height="38.6" fill="white"/>
</clipPath>
</defs>
</svg>
