<svg width="101" height="48" viewBox="0 0 101 48" fill="none" xmlns="http://www.w3.org/2000/svg">
<g filter="url(#filter0_d_209_122)">
<path d="M14.304 38H5.88V7.712L4.968 2.528C5.688 2.416 6.496 2.312 7.392 2.216C8.288 2.104 9.192 2.016 10.104 1.952C11.016 1.888 11.888 1.84 12.72 1.808C13.568 1.76 14.304 1.736 14.928 1.736C16.912 1.736 18.816 1.912 20.64 2.264C22.464 2.6 24.072 3.168 25.464 3.968C26.856 4.752 27.968 5.8 28.8 7.112C29.632 8.408 30.048 10.016 30.048 11.936C30.048 14.096 29.672 15.912 28.92 17.384C28.168 18.856 27.096 20.056 25.704 20.984C24.328 21.896 22.672 22.568 20.736 23C18.8 23.432 16.656 23.688 14.304 23.768V38ZM14.304 10.88V18.704C15.536 18.64 16.632 18.488 17.592 18.248C18.552 17.992 19.36 17.616 20.016 17.12C20.688 16.608 21.192 15.952 21.528 15.152C21.88 14.336 22.056 13.328 22.056 12.128C22.056 11.152 21.872 10.32 21.504 9.632C21.136 8.944 20.656 8.384 20.064 7.952C19.488 7.504 18.84 7.184 18.12 6.992C17.4 6.784 16.68 6.68 15.96 6.68C15.688 6.68 15.368 6.688 15 6.704C14.648 6.72 14.288 6.752 13.92 6.8L14.304 10.88ZM30.9746 38L40.5266 7.184L41.3666 2.144L50.4386 1.4L61.9346 38H53.7266L50.9426 27.752H41.5346L38.8226 38H30.9746ZM46.2386 5.336L44.9666 14.24L42.9506 22.496H49.5266L47.4866 14.24L46.2386 5.336ZM75.9934 24.464C75.8174 24.24 75.6174 24.112 75.3934 24.08C75.1694 24.032 74.9934 24.008 74.8654 24.008V38H66.4174V7.712L65.5054 2.432C66.2254 2.352 67.0414 2.272 67.9534 2.192C68.8654 2.096 69.7934 2.016 70.7374 1.952C71.6814 1.888 72.6014 1.84 73.4974 1.808C74.4094 1.76 75.2174 1.736 75.9214 1.736C78.1134 1.736 80.1054 1.96 81.8974 2.408C83.7054 2.84 85.2494 3.496 86.5294 4.376C87.8254 5.24 88.8254 6.32 89.5294 7.616C90.2494 8.896 90.6094 10.376 90.6094 12.056C90.6094 13.784 90.3374 15.272 89.7934 16.52C89.2654 17.752 88.5454 18.808 87.6334 19.688C86.7214 20.552 85.6654 21.264 84.4654 21.824C83.2814 22.384 82.0414 22.84 80.7454 23.192L84.1054 23.984L94.5694 38H85.7374L75.9934 24.464ZM74.8654 10.88V18.752H76.4014C77.4734 18.752 78.4014 18.584 79.1854 18.248C79.9854 17.896 80.6414 17.432 81.1534 16.856C81.6814 16.28 82.0734 15.608 82.3294 14.84C82.5854 14.072 82.7134 13.264 82.7134 12.416C82.7134 11.296 82.5214 10.368 82.1374 9.632C81.7694 8.896 81.2894 8.312 80.6974 7.88C80.1054 7.432 79.4334 7.12 78.6814 6.944C77.9454 6.768 77.2174 6.68 76.4974 6.68H75.2254C75.0974 6.68 74.9694 6.688 74.8414 6.704C74.7294 6.704 74.6014 6.712 74.4574 6.728L74.8654 10.88Z" fill="black"/>
</g>
<defs>
<filter id="filter0_d_209_122" x="-1.3" y="0.0999022" width="102.6" height="47.2001" filterUnits="userSpaceOnUse" color-interpolation-filters="sRGB">
<feFlood flood-opacity="0" result="BackgroundImageFix"/>
<feColorMatrix in="SourceAlpha" type="matrix" values="0 0 0 0 0 0 0 0 0 0 0 0 0 0 0 0 0 0 127 0" result="hardAlpha"/>
<feOffset dx="1" dy="4"/>
<feGaussianBlur stdDeviation="2.65"/>
<feComposite in2="hardAlpha" operator="out"/>
<feColorMatrix type="matrix" values="0 0 0 0 1 0 0 0 0 0.364706 0 0 0 0 0.00784314 0 0 0 0.19 0"/>
<feBlend mode="normal" in2="BackgroundImageFix" result="effect1_dropShadow_209_122"/>
<feBlend mode="normal" in="SourceGraphic" in2="effect1_dropShadow_209_122" result="shape"/>
</filter>
</defs>
</svg>
